<?xml version="1.0" encoding="utf-8"?>
<!-- Generator: Adobe Illustrator 16.2.1, SVG Export Plug-In . SVG Version: 6.00 Build 0)  -->
<!DOCTYPE svg PUBLIC "-//W3C//DTD SVG 1.1//EN" "http://www.w3.org/Graphics/SVG/1.1/DTD/svg11.dtd">
<svg version="1.1" id="Layer_1" xmlns="http://www.w3.org/2000/svg" xmlns:xlink="http://www.w3.org/1999/xlink" x="0px" y="0px"
	 width="200px" height="50px" viewBox="0 0 200 50" enable-background="new 0 0 200 50" xml:space="preserve">
<g>
	<path fill="#777777" d="M33.858,26.15h1.951c0.139-0.696,0.212-1.415,0.212-2.15c-0.001-0.735-0.073-1.453-0.212-2.149h-1.951
		c-0.223-0.922-0.585-1.791-1.067-2.581l1.378-1.378c-0.804-1.202-1.838-2.236-3.038-3.039l-1.379,1.378
		c-0.789-0.482-1.658-0.844-2.582-1.069v-1.951c-0.694-0.138-1.413-0.211-2.148-0.211c-0.736,0-1.454,0.073-2.149,0.212v1.951
		c-0.923,0.223-1.792,0.585-2.582,1.067l-1.378-1.378c-1.202,0.803-2.235,1.837-3.039,3.039l1.378,1.378
		c-0.481,0.789-0.844,1.658-1.069,2.582l-1.951-0.001c-0.138,0.696-0.211,1.414-0.211,2.149c0,0.735,0.074,1.454,0.211,2.15h1.951
		c0.224,0.922,0.587,1.792,1.069,2.581l-1.378,1.378c0.804,1.201,1.837,2.235,3.039,3.039l1.378-1.378
		c0.79,0.482,1.658,0.844,2.582,1.067v1.951c0.695,0.138,1.413,0.212,2.149,0.212c0.735,0,1.454-0.074,2.148-0.212v-1.951
		c0.924-0.224,1.793-0.585,2.582-1.067l1.378,1.378c1.201-0.804,2.235-1.838,3.039-3.039l-1.378-1.378
		C33.273,27.942,33.635,27.072,33.858,26.15z M25.021,25.927c-1.063,0-1.925-0.863-1.924-1.926c0-1.063,0.861-1.925,1.924-1.925
		s1.925,0.862,1.925,1.925S26.084,25.927,25.021,25.927z"/>
</g>
<path fill="#777777" d="M82.25,23.985v-0.039c0-0.018-0.012-1.793-0.012-3.624c0-4.585-2.721-7.323-7.277-7.323
	c-4.503,0-7.411,2.867-7.411,7.304c0,0.847,0.005,1.512,0.011,2.125c0.005,0.519,0.01,1,0.01,1.524c0,0.011,0,0.021,0,0.032h-2.448
	V35h19.672V23.985H82.25z M70.02,22.407c-0.005-0.607-0.011-1.266-0.011-2.103c0-3.079,1.805-4.844,4.952-4.844
	c3.197,0,4.818,1.637,4.818,4.864c0,1.836,0.012,3.62,0.012,3.626v0.036H70.03c0-0.01,0-0.021,0-0.032
	C70.03,23.421,70.025,22.933,70.02,22.407z"/>
<polygon fill="#777777" points="116.475,13 135.525,24 116.475,35 "/>
<rect x="165.333" y="12.999" fill="#777777" width="6.667" height="22"/>
<rect x="178" y="13.001" fill="#777777" width="6.833" height="22"/>
</svg>
